<svg version="1" xmlns="http://www.w3.org/2000/svg" viewBox="0 0 311.929 312.651"><path fill="#363636" d="M52.093 3.572C25.076 3.572 3.21 25.43 3.21 52.452v207.75c0 27.024 21.866 48.877 48.883 48.877h207.75c27.015 0 48.876-21.854 48.876-48.877V52.453c0-27.028-21.862-48.88-48.877-48.88H52.093zM62.69 34.126l7.644 19.852 21.285 1.147L75.105 68.59l5.437 20.533L62.69 77.56 44.844 89.124l5.432-20.533-16.518-13.465 21.3-1.147 7.632-19.852zm188.94 0c17.97 0 26.538 9.815 26.538 27.77V250.75c0 17.965-8.56 27.77-26.54 27.77H62.79c-17.973 0-29.032-9.805-29.032-27.77.33-110.356 103.197-216.954 217.87-216.624z"/></svg>