<?xml version="1.0" encoding="UTF-8" standalone="no"?>
<svg
   xmlns:dc="http://purl.org/dc/elements/1.1/"
   xmlns:cc="http://creativecommons.org/ns#"
   xmlns:rdf="http://www.w3.org/1999/02/22-rdf-syntax-ns#"
   xmlns:svg="http://www.w3.org/2000/svg"
   xmlns="http://www.w3.org/2000/svg"
   xmlns:sodipodi="http://sodipodi.sourceforge.net/DTD/sodipodi-0.dtd"
   xmlns:inkscape="http://www.inkscape.org/namespaces/inkscape"
   version="1"
   viewBox="0 0 311.929 312.651"
   id="svg2"
   inkscape:version="0.91 r13725"
   sodipodi:docname="caelum-logo.svg"
   inkscape:export-filename="/Users/arturdinizadam/workspaces/caelum/ceep-offline/img/caelum-logo-256.png"
   inkscape:export-xdpi="75.415619"
   inkscape:export-ydpi="75.415619">
  <metadata
     id="metadata10">
    <rdf:RDF>
      <cc:Work
         rdf:about="">
        <dc:format>image/svg+xml</dc:format>
        <dc:type
           rdf:resource="http://purl.org/dc/dcmitype/StillImage" />
      </cc:Work>
    </rdf:RDF>
  </metadata>
  <defs
     id="defs8" />
  <sodipodi:namedview
     pagecolor="#ffffff"
     bordercolor="#666666"
     borderopacity="1"
     objecttolerance="10"
     gridtolerance="10"
     guidetolerance="10"
     inkscape:pageopacity="0"
     inkscape:pageshadow="2"
     inkscape:window-width="1440"
     inkscape:window-height="851"
     id="namedview6"
     showgrid="false"
     inkscape:zoom="2.1349965"
     inkscape:cx="104.0151"
     inkscape:cy="166.63193"
     inkscape:window-x="0"
     inkscape:window-y="1"
     inkscape:window-maximized="1"
     inkscape:current-layer="svg2" />
  <path
     fill="#363636"
     d="M52.093 3.572C25.076 3.572 3.21 25.43 3.21 52.452v207.75c0 27.024 21.866 48.877 48.883 48.877h207.75c27.015 0 48.876-21.854 48.876-48.877V52.453c0-27.028-21.862-48.88-48.877-48.88H52.093zM62.69 34.126l7.644 19.852 21.285 1.147L75.105 68.59l5.437 20.533L62.69 77.56 44.844 89.124l5.432-20.533-16.518-13.465 21.3-1.147 7.632-19.852zm188.94 0c17.97 0 26.538 9.815 26.538 27.77V250.75c0 17.965-8.56 27.77-26.54 27.77H62.79c-17.973 0-29.032-9.805-29.032-27.77.33-110.356 103.197-216.954 217.87-216.624z"
     id="path4" />
  <path
     style="fill:#0000ff;fill-opacity:1"
     d="m 57.784418,277.98171 c -7.004859,-0.75465 -12.658295,-3.37204 -16.908917,-7.82837 -2.937778,-3.07996 -4.592578,-6.03807 -5.84241,-10.44387 -0.703833,-2.48109 -0.846043,-4.61862 -0.807978,-12.14456 0.182522,-36.08762 13.395738,-76.29223 36.281618,-110.39616 9.265716,-13.80753 17.678504,-23.98446 30.157459,-36.48141 19.33483,-19.362699 37.65021,-32.660249 61.17803,-44.417176 24.64247,-12.313928 48.50801,-19.132783 74.67895,-21.337249 8.27915,-0.697381 19.08015,-0.591688 22.95085,0.224584 7.3484,1.549665 12.65858,5.551664 15.4858,11.670821 3.2045,6.935711 3.04731,0.880131 2.89508,111.53088 -0.1305,94.8503 -0.17901,99.88226 -0.98877,102.55467 -1.45102,4.78875 -3.16826,7.8528 -5.98106,10.67191 -2.80342,2.80972 -5.59988,4.36104 -10.47428,5.81054 -2.65479,0.78946 -8.24031,0.83939 -100.93693,0.90235 -53.96964,0.0367 -99.728991,-0.10598 -101.687442,-0.31696 z"
     id="path4140"
     inkscape:connector-curvature="0" />
  <path
     style="fill:#ffffff;fill-opacity:1"
     d="m 45.418802,87.728581 c 0.432677,-1.245201 4.919392,-18.51541 4.919392,-18.935665 0,-0.244384 -3.600365,-3.381855 -8.000811,-6.972159 l -8.000812,-6.527826 10.379831,-0.544512 c 5.708907,-0.299482 10.441646,-0.615641 10.517198,-0.702577 0.07555,-0.08694 1.65974,-4.162756 3.520418,-9.057377 1.860678,-4.894622 3.525162,-9.155156 3.698853,-9.467855 0.173691,-0.312698 1.965034,3.722257 3.980763,8.966567 l 3.664961,9.535111 2.883287,0.273258 c 1.585807,0.150293 6.202963,0.411753 10.260347,0.581025 4.057384,0.169272 7.367033,0.437587 7.354775,0.596256 -0.01227,0.158669 -3.49001,3.10511 -7.728349,6.547646 -4.238335,3.442537 -7.706064,6.584376 -7.706064,6.981865 0,0.397489 1.066575,4.709029 2.370166,9.581199 1.303592,4.872171 2.304765,9.046496 2.224828,9.276276 -0.07994,0.229781 -3.833869,-1.99404 -8.342073,-4.94182 -4.508204,-2.947781 -8.391664,-5.363468 -8.629912,-5.368192 -0.238247,-0.0047 -4.18922,2.415302 -8.77994,5.377836 -4.590719,2.962534 -8.446558,5.386425 -8.568531,5.386425 -0.121972,0 -0.130219,-0.263466 -0.01833,-0.585481 z"
     id="path4142"
     inkscape:connector-curvature="0" />
  <path
     style="fill:#ffffff;fill-opacity:1"
     d="m 47.345821,80.468616 c 1.139681,-4.314995 2.311184,-8.768891 2.603341,-9.897546 0.482092,-1.862407 0.44226,-2.122188 -0.430897,-2.810309 -0.529151,-0.417015 -4.174503,-3.392873 -8.100783,-6.613019 l -7.138691,-5.854811 10.425123,-0.560914 c 5.733818,-0.308503 10.475172,-0.624662 10.536344,-0.702577 0.06117,-0.07792 1.638663,-4.146354 3.505535,-9.040975 1.866873,-4.894622 3.538141,-9.159445 3.71393,-9.477384 0.176183,-0.318653 1.967204,3.702931 3.990976,8.961391 l 3.671361,9.539464 3.105746,0.277336 c 1.708161,0.152535 6.327663,0.417882 10.265562,0.589659 3.937898,0.171777 7.099496,0.466671 7.025772,0.655319 -0.125031,0.319931 -12.519663,10.692321 -14.472108,12.110913 -0.486443,0.353436 -0.884441,0.941132 -0.884441,1.305991 0,0.364859 1.065877,4.67666 2.368616,9.581779 1.302739,4.905121 2.303912,9.099465 2.224828,9.320768 -0.07908,0.221302 -3.726933,-1.919549 -8.106331,-4.757446 -4.379398,-2.8379 -8.211778,-5.265833 -8.516401,-5.395408 -0.304622,-0.129575 -4.349661,2.20539 -8.988974,5.188813 -4.639313,2.983419 -8.533112,5.424402 -8.652885,5.424402 -0.119774,0 0.714696,-3.53045 1.854377,-7.845446 z"
     id="path4144"
     inkscape:connector-curvature="0" />
  <path
     style="fill:#ffffff;fill-opacity:1"
     d="m 55.115182,277.31392 c -8.997475,-1.65203 -16.248569,-7.61976 -19.403699,-15.96947 -0.977294,-2.5863 -1.047105,-3.51171 -1.039499,-13.77954 0.0045,-6.05388 0.27346,-13.22017 0.597722,-15.92509 4.984989,-41.58365 22.457253,-80.86427 51.355929,-115.45686 5.878726,-7.03701 21.157455,-22.42132 28.583855,-28.781386 30.80386,-26.380795 68.31716,-44.20635 105.89278,-50.318084 11.01872,-1.792212 17.77448,-2.276374 28.76786,-2.06169 8.80521,0.171952 10.40854,0.321703 12.7629,1.192053 8.59629,3.177845 13.44394,9.803978 14.4059,19.691085 0.53884,5.538161 0.5759,192.902072 0.0396,200.325092 -0.32331,4.47526 -0.58865,5.6138 -2.0194,8.66512 -2.80973,5.99222 -6.69178,9.49868 -13.06415,11.80019 l -2.99137,1.08039 -100.23436,0.083 c -82.059916,0.068 -100.854418,-0.0308 -103.654098,-0.54485 z"
     id="path4146"
     inkscape:connector-curvature="0" />
</svg>
